<svg width="34" height="34" viewBox="0 0 34 34" fill="none" xmlns="http://www.w3.org/2000/svg">
<path d="M24.083 4.8698C24.4551 4.50866 24.8968 4.2222 25.383 4.02675C25.8691 3.83131 26.3901 3.73071 26.9163 3.73071C27.4425 3.73071 27.9636 3.83131 28.4497 4.02675C28.9359 4.2222 29.3776 4.50866 29.7497 4.8698C30.1218 5.23094 30.4169 5.65966 30.6183 6.13151C30.8196 6.60336 30.9233 7.10908 30.9233 7.6198C30.9233 8.13052 30.8196 8.63624 30.6183 9.10809C30.4169 9.57994 30.1218 10.0087 29.7497 10.3698L10.6247 28.9323L2.83301 30.9948L4.95801 23.4323L24.083 4.8698Z" stroke="#8DD275" stroke-width="3" stroke-linecap="round" stroke-linejoin="round"/>
</svg>
