<svg width="37" height="37" viewBox="0 0 37 37" fill="none" xmlns="http://www.w3.org/2000/svg">
<path d="M4.83496 9.19019H7.89832H32.4052" stroke="#FC3939" stroke-width="3" stroke-linecap="round" stroke-linejoin="round"/>
<path d="M12.4935 9.1902V6.12684C12.4935 5.31438 12.8162 4.53521 13.3907 3.96071C13.9652 3.38622 14.7444 3.06348 15.5568 3.06348H21.6836C22.496 3.06348 23.2752 3.38622 23.8497 3.96071C24.4242 4.53521 24.7469 5.31438 24.7469 6.12684V9.1902M29.342 9.1902V30.6337C29.342 31.4462 29.0192 32.2253 28.4447 32.7998C27.8702 33.3743 27.0911 33.6971 26.2786 33.6971H10.9618C10.1493 33.6971 9.37017 33.3743 8.79567 32.7998C8.22118 32.2253 7.89844 31.4462 7.89844 30.6337V9.1902H29.342Z" stroke="#FC3939" stroke-width="3" stroke-linecap="round" stroke-linejoin="round"/>
<path d="M21.6836 16.8484V26.0385" stroke="#FC3939" stroke-width="3" stroke-linecap="round" stroke-linejoin="round"/>
<path d="M15.5566 16.8484V26.0385" stroke="#FC3939" stroke-width="3" stroke-linecap="round" stroke-linejoin="round"/>
</svg>
